<?xml version="1.0"?><svg version="1.2" baseProfile="tiny-ps" viewBox="0 0 300 300" xmlns="http://www.w3.org/2000/svg" xmlns:xlink="http://www.w3.org/1999/xlink"><title>ITALY BIKE TOURS</title><g><g fill="#faf8fc" transform="matrix(.1 0 0 -.1 0 300)"><path d="M0 1500V0h3000v3000H0V1500z"/></g><g fill="#f9d7e5" transform="matrix(.1 0 0 -.1 0 300)"><path d="M0 1500V0h3000v3000H0V1500zm1227 444c4 3-6 30-21 60l-27 53 7 27 6 26 33 29 34 29 57 12 57 12 41-9 41-9-3-18-3-18 33 5c18 4 76 9 129 13l95 6 56-16 56-16 27-32 27-32-6-30-6-30-22-23c-20-21-20-42-1-30 5 3 57 75 117 161s110 155 111 154c2-2 22-49 45-106 24-56 47-105 52-108l10-6 42 41 42 41 97-218c54-119 101-223 106-230l8-14 151 1 151 2 33-14 34-14 17-26 17-26v-513l-34-34-34-34H259l-22 11c-12 6-30 21-39 33l-18 21v521l16 23 17 23 34 15 35 14 136-1c75-1 147-1 159 0h23l118 236 118 236 27-41c15-23 32-41 37-41s42 48 81 107l72 107 84-168c46-93 87-165 90-162zm-252 191c-38-57-72-104-75-105-3 0-15 16-28 36l-23 35-11-3c-6-2-72-125-147-273l-136-270h-55c-30 0-100 3-155 6l-100 5 152 2 152 2 16 30c8 16 15 34 15 40v10H259l-20-10c-10-6-26-24-34-40l-15-29v-481l29-32 29-33 1259-3 1258-2 35 17 35 18 12 25 13 25v466l-14 28-15 27-26 12-26 12h-299v-10c0-6 7-24 15-40l16-30 142-1 142-1-38-9-38-9-104 3-105 3-10 10c-5 5-62 126-126 269s-118 262-120 264c-3 3-24-15-49-39l-44-43-21 49c-51 118-73 164-81 164-4 0-46-55-94-122l-86-123 11-3c6-2 25 1 42 7s54 11 82 11h51l40-19 41-18 41-47 42-48 12-55 13-55-13-46c-17-64-46-109-94-143l-40-29h482l6-10 6-10h-592l6 10c3 6 16 10 28 10s40 9 62 19l40 18 32 36c17 19 36 52 43 72l12 37-4 63-4 63-27 40-27 41-47 28-48 28h-70l-70-1-45-25-45-24-31-47-31-46-7-41-6-41 10-47 11-47 30-40 30-41 52-33 52-32h-419l-419 1 11 11c21 21 13 25-58 30l-70 5-40 27-40 26-25 38c-14 21-29 52-34 69l-9 31 62-15c33-8 123-28 200-44l138-31 12 12 11 11v125l-30 60-31 59-44 25-45 25H985l-48-28-47-28-25-37-25-37-9-52-10-52 15-51 15-50 32-37 32-36 40-18c22-10 50-19 63-19h22v-20H470v20h475l-43 36-43 36-20 39c-10 21-22 59-25 82l-6 44 15 54 16 54 38 39 38 39 43 18 44 19h46c26 0 64-5 85-11 22-6 41-8 43-6 6 5-118 257-126 257-3 0-36-48-75-105zm-585-782c0-4-8-43-17-86l-17-79-13-5c-8-3-16-3-20 0-5 6 24 153 34 170 5 9 33 9 33 0zm170-7v-15l-27-3-28-3-16-70-16-70-18-4-18-3 7 38c4 22 10 56 13 77l6 37h-43v30h140v-14zm127-56c7-36 15-75 18-87l5-23h-38l-6 15-5 15h-72l-5-15-6-15h-38l45 91 46 90 22-3 21-3 13-65zm110 28c-4-24-9-58-13-75l-6-33h91l-5-15-6-15H732l19 83c10 45 19 85 19 90 0 4 7 7 16 7h17l-6-42zm153 7c6-19 15-35 18-35 4 0 15 14 24 30 17 29 43 48 54 37 3-3-10-29-29-58-19-30-38-69-41-86l-8-33h-37l6 34 5 34-21 56-21 56h38l12-35zm321 25 19-11v-47l-15-12-16-13 11-11c5-5 10-20 10-33v-22l-19-11-20-10h-112l5 18c2 9 10 44 16 77 7 33 14 66 16 73l3 12h41c23 0 50-5 61-10zm115-12c-3-13-11-52-18-87l-12-63-13-5c-25-10-26 5-8 92l18 85h39l-6-22zm84-8v-30h8c5 0 21 14 37 30l29 30h40l-39-39-38-40 21-50 21-51h-39l-15 36-15 36-12-4c-7-3-17-19-22-36l-9-32h-35l14 68c8 37 16 77 19 90l5 22h30v-30zm270 16v-15l-42-3-43-3v-40l33-3 32-3v-19h-80v-9c0-5-3-16-6-25l-6-16h94l-4-12-5-13-61-3c-34-2-62-1-62 2 0 9 30 151 35 164l4 12h111v-14zm250 0v-15l-27-3-27-3-8-30c-4-16-12-49-18-72l-11-43h-32l7 38c3 20 9 54 12 75l7 37h-22c-21 0-27 10-14 23 3 4 35 7 70 7h63v-14zm157-8 23-21v-69l-17-29-17-29-34-11-33-11-29 12-29 12-11 34-12 34 12 35 12 35 26 15c15 8 40 14 56 15h30l23-22zm113 7c0-7-5-37-11-65l-11-51 12-14c15-19 35-19 52-1l14 13 13 67 13 66h39l-5-17c-2-10-10-44-16-75l-11-58-26-20-26-20h-21c-12 0-32 7-45 16l-24 17 6 61c3 34 9 69 12 79l7 17h28v-15zm275 3 25-11v-46l-14-13-13-12 5-43 5-43h-42l-3 33-3 32-27 3-27 3-7-35-6-36h-38l6 28c3 15 10 43 14 62s11 47 14 63l6 27h40c21 0 51-5 65-12zm190-10 16-23-16-3-15-3-16 15c-18 18-17 18-38 10-9-3-16-12-16-20v-14l40-20 40-20v-59l-22-15c-12-9-33-16-46-16h-23l-27 27-27 28 18 3 19 4 12-17 12-17 24 4 25 3 3 17 3 17-39 20-40 20-6 17-6 17 15 23 15 24h79l16-22zm-2099-50c-21-48-21-48 9-48h25l-1 18c-1 9-4 28-9 42l-7 25-17-37zm568 27-7-16 10-10 10-10 27 11 28 10-4 13-5 12-26 3-27 3-6-16zm-17-77c-3-12-4-26 0-31l5-9 26 7c30 7 43 22 35 42l-5 13h-56l-5-22zm874 78c-7-8-14-30-18-48l-5-35 17-16c30-31 69-13 84 38l8 30-8 23-8 22h-59l-11-14zm405-2c-3-9-6-20-6-25v-9h68l4 13c3 6 3 18 1 25l-5 12h-56l-6-16zm-1194 835-43-21-10-20-10-19 3-32 3-31 33-23 33-22 52-10c29-5 70-13 92-18l40-8-80-5-80-5 35-8c19-4 55-8 80-10l45-4-104-1-103-2 7-17c4-10 14-36 22-58l15-40-5-67-6-67 112-25c62-15 159-37 217-50l105-24-110-3c-60-1-182-5-270-9l-160-6 355-2 354-2-41 43c-22 23-49 58-59 77l-18 35-1 70v70l29 48 29 48-11 11-11 11 25 32 24 32v26c0 57-32 82-123 97l-52 8-98-9c-54-4-114-11-135-15l-37-7 18 20 17 20-7 6c-3 4-34 7-67 7h-61l-43-21z"/></g><g fill="#eca6be" transform="matrix(.1 0 0 -.1 0 300)"><path d="M0 1500V0h3000v3000H0V1500zm1183 552-6 38 17 25 16 25 41 20 40 21 49 6 48 6 37-7 37-7-5-20-6-21 17 7c9 3 71 9 137 12l120 5 44-12 44-12 29-28 28-28v-59l-25-38c-14-20-21-35-16-33 6 1 59 72 118 157 60 85 112 154 117 153 5 0 28-47 53-104 24-56 45-104 47-106s23 15 47 37l44 40 6-7c3-4 50-107 105-229l99-221 172-4 171-3 26-24 26-25 10-35 10-36v-200c0-110-3-217-7-238l-6-38-29-30-30-29H244l-22 16c-12 8-29 28-37 44l-15 29v473l15 32 15 32 29 17 29 17h337l105 211c58 116 112 222 122 236l16 26 27-42c15-22 30-41 34-41 3 0 40 50 81 111l74 110 68-133 67-133-6 37zm-207 78c-37-55-72-100-77-100s-19 16-31 35c-13 19-25 35-28 35s-68-124-144-275l-140-275H250v20h296l17 35c9 20 17 38 17 40 0 3-72 5-160 5H260l-32-29-33-29-3-224c-2-122 0-238 3-257l6-33 24-24 24-24h2552l24 25 25 24v510l-24 28-24 28-161 3c-89 2-161 1-161-1 0-3 7-21 15-41l15-36h280v-20h-290l-41 88c-22 48-77 169-121 270l-82 182h-11c-6 0-26-16-45-35s-37-35-40-35-26 47-50 105-46 105-49 105c-9 0-174-241-168-246 2-2 16 0 31 6l27 10h120l32-13c18-8 47-27 66-43l34-28 23-51 24-50v-45c0-25-5-63-11-85l-11-40-54-52-54-53h480v-20h-590v17l38 6 37 6 46 30 46 29 27 53 26 53v97l-16 37c-19 48-58 88-109 114l-40 21h-110l-40-17c-52-22-93-61-116-111l-19-40v-106l13-32c21-49 65-95 121-127l51-30h-430l-430 1 18 13 17 14-22 6c-13 3-36 6-53 6-16 0-47 5-68 11l-38 10-38 38-38 38-17 48c-9 27-14 50-12 52 1 2 92-17 201-42l199-45 8 12c4 7 8 40 8 73v60l-24 51-24 51-34 26-33 26-46 10-46 10-39-6c-80-12-149-64-178-135l-16-37v-96l25-52 24-53 48-30 48-31 37-6 38-6v-17H470v20h470l-47 43-46 42-18 40-19 40v110l21 45c36 79 92 124 175 139l49 9 45-8c25-5 53-12 63-15l17-7-60 123c-33 68-63 125-68 127-4 1-39-43-76-98zm-587-792c0-13-8-54-17-93l-17-70-19-3-19-4 6 43c3 24 11 68 17 97l12 52h38l-1-22zm171 8v-15l-27-3-27-3-16-75-15-75-17-3c-25-5-28 9-12 73 7 33 14 66 14 73v12h-25c-24 0-32 10-18 23 3 4 37 7 75 7h68v-14zm133-73c21-108 21-103-2-103h-20l-6 20-6 20h-64l-13-20-12-20h-15c-22 0-19 11 27 105l42 85h53l16-87zm117 80c0-5-7-35-15-68s-14-63-15-67v-8h91l-3-17-3-18-68-3c-37-2-67-1-67 1 0 8 31 162 35 175l4 12h21c11 0 20-3 20-7zm145-33 12-35 23 38 22 37h50l-18-27c-54-85-63-101-69-130l-7-33h-41l7 40 6 39-20 51c-25 63-25 62 2 58l21-3 12-35zm329 24c20-20 20-38 1-58l-16-16 11-20 11-21-15-23-15-23-38-6c-21-4-50-7-65-7h-28v13c0 6 8 49 17 95l17 82h105l15-16zm106 7c0-24-33-167-40-175l-9-9-14 6-15 6 14 68c8 37 16 78 19 91l5 22h20c11 0 20-4 20-9zm85-23-7-33 34 33 34 32h48l-37-38-38-39 21-47c25-59 25-66 2-66h-19l-18 40-18 40-12-10c-7-6-15-24-19-40l-5-30h-41v11c0 11 28 145 35 167l4 12h43l-7-32zm273 20-5-13-39-3-39-3-7-12c-14-22-8-27 27-27h35v-40h-80v-40h81l-3-17-3-18-54-3c-29-2-59-1-67 2l-13 5 9 33c5 18 14 59 20 91l11 57h131l-4-12zm242-2v-15l-27-3-27-3-16-75-16-75-16-3c-25-5-27 9-12 76l15 63-6 9c-4 6-15 10-26 10-19 0-25 11-12 23 3 4 37 7 75 7h68v-14zm163-3c16-19 20-39 18-86l-1-29-29-29-29-29h-73l-26 26-25 26 5 46 5 46 27 23 26 23h86l16-17zm113 0c-4-9-9-43-13-75l-6-60 29 4 28 3 12 45c7 25 15 57 18 73l6 27h40v-11c0-5-7-41-16-80l-16-69-21-15-21-15h-66l-20 20c-11 11-20 28-20 38 0 17 17 96 25 120l4 12h43l-6-17zm275 7 19-11v-55l-12-12-12-12 3-46 3-46-19 4-18 3-3 32-3 32-20 6c-26 9-35 1-43-35l-6-30-15-6c-9-4-18-4-21-1-6 5 24 165 33 180 6 11 91 9 114-3zm183-6c9-8 16-20 16-25v-9h-19c-11 0-23 5-26 10-3 6-17 10-31 10h-24v-29l19-6c11-3 31-15 45-26l26-20v-39l-20-20-20-20h-70l-20 20c-11 11-20 25-20 30v10h19c10 0 24-7 31-15 16-19 34-19 50-1l11 15-41 26c-22 14-44 33-47 41l-6 15 11 25 12 24h89l15-16zm-2092-51c-7-12-12-29-12-37v-16h14c20 0 24 10 16 45l-6 30-12-22zm565 17-5-20h58v40h-48l-5-20zm-10-56c-4-4-7-16-7-26v-19l28 3 27 3v40l-20 3c-12 2-24 0-28-4zm871 59c-9-10-19-28-22-40l-7-22 10-19c6-11 18-22 26-26l16-6 25 25 24 24v57l-12 12c-17 17-42 15-60-5zm402 8c0-5-3-17-6-26l-7-16 34 3 34 3v40l-27 3-28 3v-10zm-1175 834-40-14-22-26-23-26v-48l22-20c32-30 91-50 198-65l95-13-94-2-94-1 7-7c4-4 55-10 114-13l107-7-152-1-151-2 20-52 20-53-4-71-5-71 218-48c121-27 217-51 214-53-2-3-125-8-272-12l-268-7 348-1c191-1 347 1 347 4s-13 16-29 30l-30 25-27 55-27 55 5 67 5 68 26 41 26 41-14 12-15 12 30 35 30 34v56l-18 16c-10 9-34 23-55 32l-36 15-88-1c-48 0-125-6-170-12l-83-13 15 23c8 12 15 25 15 28s-24 5-52 5l-53-1-40-14zm-75-183c6-13 14-21 18-18 3 4-2 14-12 24l-18 17 12-23z"/></g><g fill="#e36d94" transform="matrix(.1 0 0 -.1 0 300)"><path d="M0 1500V0h3000v3000H0V1500zm1120 658 59-123v36l1 35 28 27c15 14 44 33 64 41l37 16h58c32 0 68-3 81-6l23-7-5-12-5-13 134 5 134 6 45-13 44-12 27-28 27-28-4-41c-2-23-3-41-2-41s45 63 99 140c53 77 98 140 100 140 1 0 24-49 50-110 26-60 50-110 53-110 4 0 23 17 44 37l38 37 9-9c6-6 54-109 109-230l99-220 169-5 169-5 23-13 24-14 14-33 14-34v-476l-20-33-20-33-35-15-34-14H271l-34 16-34 16-17 28-16 28v493l14 28c8 15 22 34 32 42l17 14 179 5 179 5 51 95c28 52 83 160 122 238l72 144 27-41c15-23 31-41 35-41 5 0 41 47 81 105 39 58 74 105 77 105s32-55 64-122zm-145-33c-38-58-73-105-77-105-3 0-16 16-28 35s-25 35-30 35-69-120-143-267l-135-268-161-3-161-2v20h299l16 30c8 16 15 31 15 35 0 3-72 5-160 5H249l-24-25-25-24v-253l1-253 12-16c7-9 22-21 34-27l22-12h2523l29 30 30 29-3 257-3 256-24 19-23 19h-308v-13c0-7 6-21 13-30l12-17 139-2 139-3 5-12 4-13h-308l-79 178c-43 97-98 219-122 271l-44 94-44-43c-25-24-46-42-48-39-2 2-24 50-48 107-24 56-47 102-51 102-9 0-161-220-156-225 2-2 24 1 48 6l45 11 43-6c83-11 165-73 196-148l16-37v-122l-25-48-24-49-38-31-38-31h485v-20h-600v18l52 12 52 13 46 46 46 46 13 47 13 47-6 45-7 45-32 48-32 47-45 23-45 22-49 1c-27 0-67-6-90-12l-41-13-41-40-40-41-13-47-14-47 6-45c12-82 60-145 146-190l46-24h-880l18 13 18 14-63 7-63 7-36 19c-20 10-48 32-62 48-28 33-63 118-54 128 4 3 89-13 189-36 101-23 191-41 200-41h18l6 26c4 14 4 47 2 73l-5 48-23 47-22 47-41 27-41 27H972l-44-30-43-31-23-41-22-40-6-44-6-44 12-45 12-45 48-46 47-46 52-13 51-12v-18H460v20h474l-41 35-41 34-21 46-21 45v121l16 37c31 76 113 137 199 148l44 7 47-12c25-7 48-10 50-8 5 5-108 237-116 237-3-1-36-48-75-105zm1159-766 25-12 11-28 12-29-6-34-7-35-30-25-31-26h-72l-23 22-23 21v84l21 27c34 43 77 55 123 35zm592-10c8-6 14-20 14-30v-19h-38l-6 16-6 15-20-3c-31-5-26-21 12-42 52-29 63-63 31-98l-16-18h-84l-18 20-17 19 6 17 6 16 25-16c13-9 33-16 45-16h20v25l-38 20-37 20-3 32-3 31 23 17 23 16 33-5c19-3 40-10 48-17zm-2330-6c-6-18-36-161-36-169 0-2-11-4-25-4s-25 2-25 4c0 8 30 151 36 169l5 17h50l-5-17zm174 13c0-2-3-11-6-20l-6-16h-47l-5-17c-2-10-10-44-17-75l-12-58h-47v13c1 13 17 90 26 120l5 17h-51v40h80c44 0 80-2 80-4zm120-48c6-29 14-72 17-95l6-43h-44l-5 15-6 15h-66l-6-15-5-15h-26c-14 0-25 2-25 4 0 3 21 45 46 95l45 91h57l12-52zm116 20c-4-18-9-50-13-70l-6-38h84l-3-22-3-23-67-3-68-3v12c0 6 8 49 17 95l18 84h48l-7-32zm149 2c8-38 16-38 37 0l17 30h26c14 0 25-2 25-5s-16-30-36-60l-36-54-7-33-7-33-28-3-28-4 7 21c12 38 8 75-14 124l-20 47h57l7-30zm333 18c7-7 12-22 12-34v-22l-15-12-15-13 11-13 11-14-6-25-7-26-25-9c-14-6-49-10-79-10h-53l4 18c2 9 11 52 20 95l16 77h114l12-12zm91-70c-10-46-19-89-19-95v-13h-50v11c0 11 28 145 35 167l4 12h49l-19-82zm99 57-5-25h7c3 0 17 11 30 25l23 25h61l-41-42-41-43 23-45c30-57 30-60 0-60h-25l-17 35c-21 43-30 44-41 3l-8-33-22-3-22-3v13c0 7 7 50 16 96l17 82h49l-4-25zm270 8-3-18-43-3-42-3v-29h71l-3-17-3-18-43-3-42-3v-39h80v-40h-140v8c0 6 9 47 35 160l5 22h131l-3-17zm252 13c0-2-3-11-6-20l-6-16h-47l-10-37c-5-21-13-55-17-75l-6-38h-48v13c1 6 7 40 14 75l14 62h-48v40h80c44 0 80-2 80-4zm264-33c-4-21-8-54-8-73l-1-35 22-3 21-3 11 33c6 18 13 52 17 76l7 42h54l-17-75-18-76-17-19-18-20h-80l-19 17-18 16v28c0 15 5 50 12 78l11 51h49l-8-37zm290 21c20-19 21-48 2-67l-14-13 3-48 3-47-26 3-27 3v60h-49l-8-32-9-33h-42l6 43c3 23 11 66 17 95l12 52h117l15-16zm-495-35-20-20 3-37 3-37 26-3 26-3 11 14c7 8 15 27 18 44l6 30-17 16c-21 22-31 21-56-4zm-1429-28c-13-26-13-31 5-31h15v25c0 30-6 32-20 6zm577 43c-4-4-7-14-7-21v-14l23 3 22 3v30l-15 3c-9 1-19 0-23-4zm-20-81c-4-3-7-13-7-20v-14l27 3 28 3 3 18 3 17h-24c-13 0-27-3-30-7zm1273 57v-20h14c25 0 46 12 46 26v14h-60v-20zm-1154 859c-21-5-51-18-66-29l-28-20-6-25-6-25 10-20c6-11 28-29 49-39l38-20 64-11c35-6 96-14 134-19l70-8-94-2-94-1 6-7c4-3 57-9 119-13l113-7-177-1-178-2v-10c0-6 8-25 17-43l17-32v-65c0-36-2-71-5-79l-4-14 230-53c127-29 228-53 225-55-3-1-57-5-120-9l-115-7 178-1c97-1 177 1 177 4 0 4-16 24-36 46s-42 55-50 74l-14 33v133l27 49 26 50-10 10-11 11 31 44 31 44-10 27-9 26-40 21-40 21-75 3-75 4-100-16c-55-8-102-13-104-10-2 2 3 12 12 22l17 19-7 6c-9 9-69 7-117-4zm534-184c-7-9-11-17-9-20 3-2 10 5 17 15 14 24 10 26-8 5z"/></g><g fill="#e64173" transform="matrix(.1 0 0 -.1 0 300)"><path d="M0 1500V0h3000v3000H0V1500zm1115 673 52-108 15 36 16 36 35 22 36 22 59 10 59 11 42-12 43-11-6-15-6-15 53 8c28 4 95 7 147 7l95 1 47-22 47-21 16-32 17-32-6-22-5-21 19 25c11 14 52 73 92 132l73 107 9-2c8-3 66-127 100-212l4-10 45 44 46 44 38-83c21-46 68-150 104-230l65-145 165-5 164-5 22-13c12-6 31-24 42-38l21-27v-508l-15-29-15-30-30-15-29-15H259l-29 15c-16 8-36 25-44 37l-16 22v523l22 28 21 27 34 15 34 14 155-2c86 0 157 1 159 3 1 1 56 109 120 238l117 234 20-24c11-14 26-34 34-44 7-11 15-18 17-15 2 2 37 52 77 111 40 60 75 106 78 103 2-2 28-53 57-112zm-139-53c-36-55-71-100-76-100s-20 16-32 35c-13 19-25 35-28 35-6 0-270-526-270-538v-7h170c94 0 170 3 170 6s-14 18-31 35c-38 36-66 90-75 142l-6 41 12 50 12 51 29 39 28 40 48 28 48 28h75c41 0 85-4 98-8l23-9-58 116c-32 64-60 116-64 116-3 0-36-45-73-100zm1008-3c-39-56-74-107-78-114l-6-12 32 10c18 5 56 9 83 9h51l52-26 52-26 30-36 31-37 15-54 16-54-6-44c-7-54-35-110-75-147-17-17-31-32-31-35 0-6 332-2 337 3 1 1-47 112-108 247-61 134-115 255-120 268l-10 24-42-41c-24-23-45-42-49-42-3 0-25 45-49 101-23 55-45 102-48 104-4 2-38-42-77-98zm-704 32c-14-6-35-20-47-31l-23-21v-56l22-21 22-21 51-14 50-15 125-11c156-13 170-17 55-18l-90-1 15-10 15-10h180l15-11 15-10-206 5c-114 3-209 3-212-1-4-3 1-20 11-37l17-31v-166l35-9c19-5 118-27 220-50 102-22 193-44 202-50l18-10h93l-25 19c-13 11-37 43-53 73l-30 53v140l26 45 27 45-11 16-11 17 28 32 27 33-3 30-3 30-25 19-25 18-55 9-55 9-90-8c-49-5-114-11-144-16l-53-7 17 27 17 26-58-1c-33 0-70-5-84-10zm-305-184-40-14-42-46-42-45-10-53-11-52 9-37c19-83 78-143 160-164l46-11 3-17 3-16H460v40H240v30h307l11 25c7 14 12 28 12 30 0 7-306 6-325-1-8-4-22-19-30-35l-15-28v-480l24-28 24-28 1249-3 1248-3 37 11 38 11 15 30 16 30-3 240-3 241-28 24-28 24h-150c-82 0-149-2-149-5 0-2 5-16 12-30l11-25h287v-30h-190v-40h-600v37l42 6 41 6 41 28 40 28 25 49 25 49v51l-1 51-21 41c-11 23-37 55-56 72l-35 31-38 10c-51 15-80 14-139-4l-50-15-37-37-38-37-15-52-15-53 7-38c4-21 15-54 25-74l18-37 42-36c23-19 57-40 75-46 19-7 34-16 34-21v-9h-877l-6 7-7 6 17 12 16 12-62 6-62 7-27 14c-15 8-42 30-60 48l-33 35-19 51-20 51 8 4c4 2 93-15 197-39 105-24 195-44 202-44h12l6 44 7 44-16 55-16 56-27 32-27 32-41 18-40 19-45-1h-45l-40-14zm-581-604c5-8-15-126-30-173l-5-18h-49v14c0 13 28 148 35 174l4 12h20c11 0 22-4 25-9zm171-16v-20l-27-3-27-3-11-57c-6-31-14-65-16-74l-5-18h-52l6 38c3 20 9 54 13 75l7 37h-43v18c0 10 3 22 7 26l7 7 71-3 70-3v-20zm113 13c5-7 15-46 22-85 6-40 15-75 20-78l8-5 12 68c7 37 17 77 21 90l9 22h18c29 0 30-6 16-73-7-34-13-65-14-69v-8h38c45 0 52-4 45-31l-5-19H660v30h-70v-30h-30c-16 0-30 2-30 5 0 8 81 169 92 183 6 6 18 12 28 12s22-6 28-12zm275-18c6-16 14-30 17-30s14 14 23 30l18 30h23c38 0 37-10-5-72l-40-59-6-34-6-35h-57l6 43 6 42-20 51c-22 55-20 64 11 64h19l11-30zm326 14 23-16-6-32c-4-17-6-48-6-68l1-36-23-16-22-16h-63c-35 0-63 2-63 4 0 17 34 165 41 179l10 17h85l23-16zm115 8c4-6-10-86-29-169l-5-23h-50v14c0 16 28 154 35 174l4 12h20c11 0 22-4 25-8zm88-21-4-24 32 26 32 27h24c32 0 30-8-12-52l-37-37 22-50c11-27 21-52 21-55s-13-6-29-6h-29l-13 37-12 37-13-19c-8-10-14-27-14-37v-18h-60l5 23c3 12 12 53 21 92 19 84 20 87 47 83l22-3-3-24zm268 4v-25h-90v-30h70v-40h-78l-6-15-5-15h78l5-9c4-5 3-16 0-25l-6-16h-138v9c0 11 30 161 35 179l4 12h131v-25zm245 0v-20l-27-3-27-3-11-57c-6-31-14-65-16-74l-5-18h-52l6 43c4 23 9 57 13 75l7 32h-43v18c0 10 3 22 7 26l7 7 71-3 70-3v-20zm160 0 25-24v-72l-16-30-15-31-35-14-34-14-28 6c-37 9-60 31-67 65l-7 29 12 35 11 35 26 20 26 20h78l24-25zm117 20c3-3-1-33-9-67-15-65-12-88 11-88 20 0 26 12 45 89l16 66 19 3c10 2 22 0 26-5l9-8-15-68c-7-38-18-76-24-87l-10-18-32-11-32-11-33 11-33 11-6 24-6 25 6 51c4 28 12 60 17 70l10 18h18c10 0 20-2 23-5zm268-8 25-12 3-28 3-28-12-15-13-16 3-44 3-44h-62v70h-38l-6-16c-3-9-6-24-6-35v-19h-30c-16 0-30 1-30 3 0 14 39 177 44 186l7 11h84l25-13zm182 0c9-7 18-22 20-32l3-19-18-4-18-4-20 18-19 18-13-13-12-13 10-4c6-2 25-13 43-24l32-20v-68l-12-9c-7-6-25-13-40-17l-28-6-33 14-34 14-5 20c-7 25-1 32 24 32h19l5-15 6-15h50l-4 13c-3 6-17 18-31 25-15 7-34 24-42 36l-16 23 10 26c11 29 23 35 71 36h35l17-12zm-2092-87-11-20h31v20c0 11-2 20-5 20-2 0-9-9-15-20zm570 34v-16l16 6c9 3 20 6 25 6s9 5 9 10v10h-50v-16zm-14-70c-9-24 0-29 30-16l25 12-6 10c-3 6-14 10-25 10h-18l-6-16zm869 62-17-25 4-22 3-22 17-11 17-10 21 19 21 19-3 35-3 36-22 3-22 3-16-25zm412 17c-14-13-6-23 18-23h25v30h-18c-10 0-22-3-25-7z"/></g><g fill="#fd306a" transform="matrix(.1 0 0 -.1 0 300)"><path d="M0 1500V0h3000v3000H0V1500zm1120 678 46-98 16 34 16 33 49 24 48 23 56 4 57 4 36-12c20-6 36-15 36-20v-8l125 5 124 6 45-13 44-12 31-30 31-30v-19c0-11 3-19 8-19 4 1 43 54 87 120l80 119 12 1h11l13-37c6-21 25-66 40-101 16-34 29-67 29-72 0-19 16-10 55 30 45 46 51 48 61 18 3-13 22-57 41-98 47-101 66-144 97-215 15-33 35-76 44-95l18-35 166-5 167-5 28-21 28-21 12-34 12-34v-460l-12-35-12-35-45-22-44-23H257l-34 21-33 21-15 28-15 29v492l15 30 16 30 32 19 32 20h332l119 235 119 235h12c7 0 23-16 35-35 13-19 25-35 28-35 5 0 72 97 79 115 6 14 64 89 76 97l10 7 4-12c2-7 25-56 51-109zm-101-5c-71-107-112-163-120-163-4 0-19 16-33 36l-24 36-8-14c-23-36-254-499-254-508v-10h310v8c0 4-10 17-23 28-12 12-32 42-45 66l-22 45v128l19 41 19 41 38 37c21 21 55 44 74 52l35 15 65 1c36 1 75-1 86-5l22-8-51 106c-28 58-54 105-57 105-4 0-18-17-31-37zm973-53c-34-49-65-95-67-102l-5-13 79 3 80 3 37-17c21-10 55-36 75-57l38-38 17-45 17-44-5-68-5-69-19-34c-10-18-29-42-41-52-13-10-23-23-23-28v-9h310v7c0 6-81 188-157 353-19 41-44 96-55 122l-20 47-35-32c-19-18-41-36-49-40l-14-8-25 57c-14 31-25 58-25 61 0 6-40 93-43 93-1-1-30-41-65-90zm-684 30c-14-4-40-16-56-26l-31-18-6-23-5-23 12-20 12-19 46-20 46-20 84-10c47-6 122-11 168-11h83l-6-10-6-10h-88l-5-8-5-8h17c9 0 43-1 75-2l57-2v-20h-215c-118 0-215-2-215-4s7-20 15-39l15-36v-149l33-7c17-4 77-17 132-30s144-33 197-45c54-12 100-26 103-31l6-9h69v10c0 5-6 13-13 17-8 4-27 27-42 51l-28 43-4 77-5 77 26 49 25 49-10 19-10 18 21 17c11 10 20 23 20 30s5 13 10 13h10v46l-20 22-20 21-43 12-42 11-105-5c-58-4-129-11-159-17-30-5-56-8-59-5s0 16 6 30l12 25-38-1c-20 0-49-4-64-9zm-350-199c-59-30-102-84-113-142l-6-35 193-42c106-23 201-42 212-42h19l-5 74-5 73-29 44c-16 24-45 54-63 66l-34 23h-66l-66-1-37-18zm964 6-33-10-33-33c-19-19-41-49-50-68l-16-34v-99l25-46c13-26 39-60 57-76l33-30 44-16 45-15 5 9c3 4 23 11 45 15 21 4 56 18 77 32l39 24 25 38 26 39 6 50 5 50-11 35c-6 19-23 50-37 69l-25 34-42 23-42 22-55-1c-30-1-70-6-88-12zM850 1694c0-6 7-19 16-30l15-19-12 25c-14 31-19 36-19 24zm1773-61c-68-2-123-6-123-9s5-14 10-25l11-19h279v-40h-178l-6-15-5-15-763 3-763 2v14c0 8-6 16-13 19l-13 4 3-18 3-19-303-3-303-2-5 15-6 15H241l-5 9c-4 5-4 15-1 23l5 13h292l15 23 15 22H253l-24-26-24-26v-490l28-24 28-24 1270 2 1270 3 19 25 20 25v484l-22 25-23 25-25 4c-14 1-80 2-147 0zM573 1360l9-8-11-20-11-21-22-3-22-3-11-56c-7-30-14-63-18-72l-6-17h-61v18c1 9 7 42 14 74l14 56-24 5-24 4-5-21c-2-11-10-46-17-76l-13-55-24-3-23-4-10 10-9 9 10 39c5 22 15 65 21 97l12 59 34-4c19-2 34-1 34 2 0 8 154-1 163-10zm1584-2c7-6 18-29 25-51l12-41 11 50 10 49 34 3 33 3-6-33c-3-18-9-52-12-75l-7-43h16c21 0 26 10 41 83l13 62 22 3c12 2 28 1 36-2l13-5-10-43c-6-24-14-60-19-80l-10-38-21-20-22-20h-84l-12 15-12 15-9-6-9-5 1 8c1 4 0 24-1 43l-2 35-12-33-12-34-24-19-25-19h-86l-24 25-25 24v101h-40l-1-32c0-18-6-51-13-73l-12-40h-59l1 25c0 14 4 46 8 73l8 47h-15c-9 0-19 5-22 10l-6 10 6 20 7 21 81-3 82-3-2-12c-2-7 2-13 7-13 6 0 10 4 10 9s12 14 28 20l27 10 35-5c19-3 41-10 47-16zm550 11c30-11 43-26 43-50v-17l-21-5-21-6 16-23c9-12 16-33 16-47v-24l-22-18-21-19h-81l-23 22-23 21v18c0 24 14 31 44 23l26-6-5-8c-3-4 2-10 10-14l14-5 5 8 5 8-37 24-37 24-3 18c-2 10-1 29 2 42l6 23 27 10c37 14 47 14 80 1zm-2018-21c5-13 12-47 16-75 4-29 10-53 14-53s13 28 20 63c7 34 14 68 17 75l3 12h29c16 0 31-3 34-6s0-29-8-57c-8-29-14-60-14-69v-18h81l-3-27-3-28-103-1-102-2-11 19-10 19h-35l-17-20-17-20h-24c-14 0-27 3-30 8-2 4 16 51 42 105l46 97h66l9-22zm272-5 10-28 17 28 17 27h65v-12c0-7-18-40-40-73s-41-68-41-77c-1-10-2-24-3-30l-1-13h-70l4 15c2 8 3 33 3 55v40l-20 40c-24 47-21 55 19 55h29l11-27zm328 18 14-9-1-28c0-16-2-51-5-77l-4-48-16-16-16-16-50-5c-27-2-61-2-74 2l-23 5 20 101 20 100h121l14-9zm114-11c-4-34-33-173-39-181-3-5-18-9-35-9h-29v14c0 8 9 56 21 106l21 91 32-3 31-3-2-15zm87-2v-22l20 21 19 22h116l115 1v-50l-22-5c-13-2-34-6-48-8l-25-4 32-2c17 0 35-5 38-11l6-10-11-20-11-20h-69v-20h80v-50l-22-5c-13-3-63-4-112-3l-89 3-11 20c-6 11-15 23-21 27l-9 7-13-30-12-29h-42l-5 15-6 15 17 78c9 42 19 83 21 90l3 12h61v-22zm1072 5 18-16v-19c0-11-5-29-12-41l-12-22-1-45v-45h-70l3 31 3 31-15 6-15 6-5-7c-2-4-7-22-11-39l-7-33h-27c-15 0-30 2-33 5s27 154 41 203c1 1 29 2 63 2h61l19-17zm-491-42-14-9-1-38-1-39h39l16 27 15 28-11 17c-13 21-25 25-43 14zm589 0c0-5 7-12 16-15 24-9 28-7 14 9-14 17-30 20-30 6zm-1450-1c0-5 7-10 16-10h15l-6 10c-3 6-10 10-16 10-5 0-9-4-9-10zm-14-76-5-14h19c23 0 27 15 6 23l-14 6-6-15zm366 83-32-32v-15c1-8 9-31 20-50l18-35 6 15c12 31 33 150 27 149-3 0-21-14-39-32zm913-8c-10-14-1-21 19-13l16 6-6 9c-7 12-21 11-29-2zM900 1616c0-2 8-10 18-17l17-14-14 18c-13 16-21 21-21 13z"/></g></g></svg>